{
  "accessors": [
    {
      "bufferView": 1,
      "componentType": 5126,
      "count": 46436,
      "max": [
        1.1892740726470947,
        -0.0048804315738379955,
        1.6998269557952881
      ],
      "min": [
        -0.74771404266357422,
        -2.286099910736084,
        -0.49756267666816711
      ],
      "type": "VEC3"
    },
    {
      "bufferView": 1,
      "byteOffset": 557232,
      "componentType": 5126,
      "count": 46436,
      "max": [
        0.99984663724899292,
        0.9999966025352478,
        0.99987447261810303
      ],
      "min": [
        -0.99999594688415527,
        -0.9999423623085022,
        -0.9998699426651001
      ],
      "type": "VEC3"
    },
    {
      "bufferView": 2,
      "componentType": 5126,
      "count": 46436,
      "max": [
        0.9686274528503418,
        0.87450981140136719,
        0.86274510622024536,
        1
      ],
      "min": [
        0.078431375324726105,
        0.074509806931018829,
        0.066666670143604279,
        1
      ],
      "type": "VEC4"
    },
    {
      "bufferView": 0,
      "componentType": 5125,
      "count": 266697,
      "max": [
        46435
      ],
      "min": [
        0
      ],
      "type": "SCALAR"
    }
  ],
  "asset": {
    "extras": {
      "author": "juntaozhu233 (https://sketchfab.com/juntaozhu233)",
      "license": "CC-BY-4.0 (http://creativecommons.org/licenses/by/4.0/)",
      "source": "https://sketchfab.com/models/073a8a7be1f247298767793966e0e34d",
      "title": "W ILL9"
    },
    "generator": "Sketchfab-3.23.2",
    "version": "2.0"
  },
  "bufferViews": [
    {
      "buffer": 0,
      "byteLength": 1066788,
      "byteOffset": 0,
      "name": "floatBufferViews",
      "target": 34963
    },
    {
      "buffer": 0,
      "byteLength": 1114464,
      "byteOffset": 1066788,
      "byteStride": 12,
      "name": "floatBufferViews",
      "target": 34962
    },
    {
      "buffer": 0,
      "byteLength": 742976,
      "byteOffset": 2181252,
      "byteStride": 16,
      "name": "floatBufferViews",
      "target": 34962
    }
  ],
  "buffers": [
    {
      "byteLength": 2924228,
      "uri": "scene.bin"
    }
  ],
  "materials": [
    {
      "doubleSided": true,
      "emissiveFactor": [
        0,
        0,
        0
      ],
      "name": "material_0",
      "pbrMetallicRoughness": {
        "baseColorFactor": [
          1,
          1,
          1,
          1
        ],
        "metallicFactor": 0,
        "roughnessFactor": 0.59999999999999998
      }
    }
  ],
  "meshes": [
    {
      "primitives": [
        {
          "attributes": {
            "COLOR_0": 2,
            "NORMAL": 1,
            "POSITION": 0
          },
          "indices": 3,
          "material": 0,
          "mode": 4
        }
      ]
    }
  ],
  "nodes": [
    {
      "children": [
        1
      ],
      "name": "RootNode (gltf orientation matrix)",
      "rotation": [
        -0.70710678118654746,
        -0,
        -0,
        0.70710678118654757
      ]
    },
    {
      "children": [
        2
      ],
      "name": "RootNode (model correction matrix)"
    },
    {
      "children": [
        3
      ],
      "name": "wILL9.obj.cleaner.materialmerger.gles"
    },
    {
      "mesh": 0,
      "name": ""
    }
  ],
  "scene": 0,
  "scenes": [
    {
      "name": "OSG_Scene",
      "nodes": [
        0
      ]
    }
  ]
}

